<?xml version="1.0" encoding="utf-8"?>

<!DOCTYPE svg PUBLIC "-//W3C//DTD SVG 1.1//EN" "http://www.w3.org/Graphics/SVG/1.1/DTD/svg11.dtd">
<!-- Uploaded to: SVG Repo, www.svgrepo.com, Generator: SVG Repo Mixer Tools -->
<svg version="1.1" id="Layer_1" xmlns:sketch="http://www.bohemiancoding.com/sketch/ns"
	 xmlns="http://www.w3.org/2000/svg" xmlns:xlink="http://www.w3.org/1999/xlink"  width="800px" height="800px"
	 viewBox="0 0 64 38" enable-background="new 0 0 64 38" xml:space="preserve">
<title>Cash-dollar</title>
<desc>Created with Sketch.</desc>
<g id="Page-1" sketch:type="MSPage">
	<g id="Cash-dollar" transform="translate(1.000000, 1.000000)" sketch:type="MSLayerGroup">
		<path id="Shape" sketch:type="MSShapeGroup" fill="none" stroke="#6B6C6E" stroke-width="2" d="M60,36c1.1,0,2-0.9,2-2V2
			c0-1.1-0.9-2-2-2H2C0.9,0,0,0.9,0,2v32c0,1.1,0.9,2,2,2H60L60,36z"/>
		<path id="Shape_1_" sketch:type="MSShapeGroup" fill="none" stroke="#6B6C6E" stroke-width="2" d="M5,4h20.9"/>
		<path id="Shape_2_" sketch:type="MSShapeGroup" fill="none" stroke="#6B6C6E" stroke-width="2" d="M5,32h20.9"/>
		<path id="Shape_3_" sketch:type="MSShapeGroup" fill="none" stroke="#6B6C6E" stroke-width="2" d="M36.2,4H57"/>
		<path id="Shape_4_" sketch:type="MSShapeGroup" fill="none" stroke="#6B6C6E" stroke-width="2" d="M36.2,32H57"/>
		<circle id="Oval" sketch:type="MSShapeGroup" fill="none" stroke="#6B6C6E" stroke-width="2" cx="31" cy="18" r="15">
		</circle>
		<path id="Shape_5_" sketch:type="MSShapeGroup" fill="none" stroke="#6B6C6E" stroke-width="2" d="M27.1,22.4c0,2,1.8,3.6,4,3.6
			s4-1.6,4-3.6c0-2.9-4-4.4-4-4.4s-4-1.5-4-4.4c0-2,1.8-3.6,4-3.6s4,1.6,4,3.6"/>
		<path id="Shape_6_" sketch:type="MSShapeGroup" fill="none" stroke="#6B6C6E" stroke-width="2" d="M31.1,6.1V30"/>
	</g>
</g>
</svg>