<?xml version="1.0" standalone="no"?>
<!DOCTYPE svg PUBLIC "-//W3C//DTD SVG 20010904//EN"
 "http://www.w3.org/TR/2001/REC-SVG-20010904/DTD/svg10.dtd">
<svg version="1.0" xmlns="http://www.w3.org/2000/svg"
 width="4249.000000pt" height="945.000000pt" viewBox="0 0 4249.000000 945.000000"
 preserveAspectRatio="xMidYMid meet">

<g transform="translate(0.000000,945.000000) scale(0.100000,-0.100000)"
fill="#000000" stroke="none">
<path d="M3725 9434 c-244 -34 -496 -95 -803 -196 -375 -122 -840 -303 -1220
-475 -543 -245 -654 -336 -731 -598 -26 -88 -799 -3643 -840 -3860 -216 -1160
-156 -2086 180 -2758 111 -222 242 -402 423 -583 307 -306 639 -494 1173 -668
443 -143 887 -218 1583 -268 274 -20 1326 -16 1670 5 490 31 538 38 510 72
-14 17 -23 19 -232 54 -454 78 -810 187 -1122 343 -726 364 -1166 972 -1316
1818 -53 302 -73 724 -51 1060 17 253 59 624 86 775 14 72 264 1237 556 2590
292 1353 533 2485 536 2515 6 71 -21 114 -92 150 -42 21 -65 24 -165 26 -63 1
-128 0 -145 -2z"/>
<path d="M9565 9429 c-448 -61 -1275 -345 -2065 -709 -429 -197 -550 -294
-624 -500 -15 -41 -137 -583 -272 -1204 -134 -621 -247 -1140 -250 -1152 -5
-20 22 -36 311 -183 174 -90 319 -160 322 -157 3 2 9 24 14 48 59 271 226 559
515 893 333 384 1362 1327 1848 1692 113 85 317 196 411 224 29 9 51 22 56 34
19 44 179 818 179 864 0 61 -32 104 -100 134 -53 24 -228 32 -345 16z"/>
<path d="M9599 8093 c-224 -229 -380 -400 -606 -670 -312 -372 -895 -1119
-1074 -1378 -297 -427 -501 -914 -583 -1390 -22 -122 -20 -124 18 -20 98 270
272 527 584 868 273 298 985 953 1494 1375 59 49 88 80 92 99 4 16 69 318 145
673 77 355 138 646 137 648 -2 1 -95 -91 -207 -205z"/>
<path d="M27535 7789 c-481 -9 -636 -20 -770 -54 -331 -84 -518 -280 -643
-676 -55 -173 -119 -453 -276 -1224 -459 -2240 -854 -4180 -853 -4181 5 -5
273 47 366 71 466 118 722 382 851 876 40 153 124 557 205 984 70 367 125 635
150 721 23 80 92 131 216 162 26 7 190 30 365 52 484 61 696 104 973 196 899
300 1476 879 1628 1634 25 122 24 405 0 520 -59 273 -191 512 -364 655 -210
174 -449 241 -951 265 -208 10 -292 10 -897 -1z m715 -819 c188 -20 305 -66
399 -155 128 -122 162 -295 95 -493 -86 -256 -352 -516 -711 -696 -222 -111
-442 -186 -895 -306 -260 -69 -280 -73 -318 -61 -23 7 -43 18 -46 25 -6 17
206 1053 242 1181 87 312 244 450 569 501 98 15 533 18 665 4z"/>
<path d="M13297 7749 c-379 -27 -568 -142 -734 -449 -97 -177 -129 -306 -377
-1510 -691 -3356 -849 -4130 -845 -4134 6 -6 268 41 361 64 430 110 684 350
824 776 20 63 100 430 204 933 93 456 181 864 195 908 52 164 141 247 312 290
60 15 133 17 608 18 530 0 542 1 625 23 223 60 381 189 493 400 42 81 137 310
137 332 0 6 -364 10 -980 10 -623 0 -980 4 -980 10 0 5 54 270 120 590 78 378
127 595 141 622 84 166 216 290 358 338 60 20 79 20 759 20 442 0 717 3 752
10 268 50 450 190 575 440 35 70 125 294 125 312 0 10 -2529 8 -2673 -3z"/>
<path d="M20610 6859 c-265 -27 -473 -248 -496 -524 -21 -266 153 -515 411
-591 89 -26 223 -24 314 6 237 76 395 294 394 545 0 156 -50 279 -158 393
-122 130 -283 189 -465 171z"/>
<path d="M33517 6845 c-129 -35 -240 -116 -316 -230 -217 -324 -59 -762 314
-871 137 -40 323 -12 445 66 111 71 212 210 244 336 20 77 20 221 1 294 -51
192 -202 347 -394 404 -66 19 -225 20 -294 1z"/>
<path d="M9274 6302 c-352 -422 -918 -1154 -1081 -1397 -219 -328 -386 -685
-478 -1021 -34 -124 -85 -367 -85 -402 0 -9 18 30 40 87 163 429 532 859 1422
1656 l67 60 126 584 c69 321 124 585 123 587 -2 1 -62 -68 -134 -154z"/>
<path d="M6232 5323 c-29 -131 -55 -251 -58 -268 l-5 -30 458 -230 c251 -126
461 -232 465 -233 12 -5 -74 135 -155 253 -137 198 -329 424 -534 628 l-119
118 -52 -238z"/>
<path d="M36525 5473 c-273 -22 -443 -53 -643 -119 -457 -151 -801 -446 -961
-824 -79 -186 -226 -757 -286 -1105 -54 -320 -72 -676 -45 -875 35 -259 125
-433 295 -573 176 -145 404 -226 725 -258 151 -15 1817 -13 1875 2 73 19 154
71 215 135 110 118 200 344 216 545 l7 79 -930 0 c-886 0 -933 1 -1005 19
-308 79 -452 331 -409 712 17 149 116 633 147 720 38 106 126 273 184 350 71
95 204 216 297 272 43 26 123 63 177 82 180 65 196 66 976 72 664 5 708 6 764
25 187 61 326 261 386 557 11 54 20 120 20 145 l0 46 -982 -2 c-541 -1 -1001
-3 -1023 -5z"/>
<path d="M40585 5453 c-599 -51 -1030 -218 -1326 -513 -198 -197 -297 -383
-412 -770 -189 -633 -271 -1264 -215 -1659 28 -203 83 -327 197 -444 215 -221
437 -316 816 -347 66 -5 473 -10 905 -10 856 0 846 -1 952 57 66 36 151 123
199 204 72 121 129 317 129 446 l0 54 -972 -1 c-988 -2 -1042 0 -1183 36 -168
44 -242 147 -168 235 54 64 132 86 543 155 949 158 1474 328 1825 591 173 129
351 308 439 440 125 189 172 347 163 543 -11 238 -105 439 -288 616 -201 195
-528 322 -928 363 -93 10 -577 13 -676 4z m605 -758 c159 -23 248 -60 294
-122 66 -89 -2 -252 -175 -419 -224 -214 -581 -373 -1216 -538 -264 -69 -287
-73 -326 -55 -54 25 -58 79 -21 265 98 485 317 751 699 850 164 42 520 51 745
19z"/>
<path d="M17495 5444 c-1119 -71 -1891 -517 -2281 -1319 -112 -230 -182 -464
-220 -730 -24 -164 -24 -492 0 -630 100 -591 411 -977 883 -1098 77 -19 113
-22 288 -22 179 1 211 4 310 27 221 52 415 140 629 285 67 45 122 78 124 73 2
-4 -11 -74 -28 -154 -16 -81 -30 -151 -30 -156 0 -17 605 -13 695 5 200 38
302 139 355 352 22 86 651 3245 647 3249 -13 12 -423 80 -597 99 -138 15 -645
27 -775 19z m271 -757 c3 -3 -85 -432 -196 -954 l-201 -948 -32 -28 c-58 -51
-198 -139 -301 -188 -201 -95 -415 -136 -563 -107 -256 51 -442 247 -499 528
-77 384 194 1020 573 1343 242 206 495 316 820 357 71 9 390 7 399 -3z"/>
<path d="M20375 5433 c-104 -14 -212 -62 -266 -120 -81 -84 -100 -144 -193
-608 -42 -203 -197 -959 -346 -1679 -148 -720 -270 -1311 -270 -1314 0 -2 165
-2 368 0 346 4 371 5 434 26 133 45 214 127 262 268 13 40 57 239 97 441 39
203 190 959 334 1681 l262 1312 -326 -1 c-179 -1 -339 -4 -356 -6z"/>
<path d="M22690 5429 c-69 -4 -152 -15 -185 -23 -204 -55 -322 -179 -376 -398
-12 -46 -173 -805 -358 -1688 l-337 -1605 328 -3 c355 -2 418 4 522 51 108 50
175 139 215 287 11 41 50 217 85 390 206 999 318 1514 342 1575 54 136 202
338 323 443 131 113 222 162 352 187 261 49 434 -17 690 -263 70 -68 122 -110
131 -107 31 12 56 78 183 476 101 315 106 267 -44 423 -190 196 -330 266 -531
266 -270 0 -503 -122 -792 -412 -70 -71 -130 -128 -133 -128 -11 0 -3 46 50
286 30 137 55 250 55 251 0 6 -402 0 -520 -8z"/>
<path d="M30165 5430 c-197 -12 -313 -52 -413 -145 -108 -100 -130 -158 -222
-600 -38 -181 -193 -921 -344 -1643 -152 -722 -276 -1317 -276 -1322 0 -17
642 -12 723 5 190 40 291 138 341 330 8 33 101 470 205 970 104 501 197 930
206 955 23 65 96 199 145 266 61 83 204 228 276 280 122 88 264 134 409 134
191 0 336 -73 546 -277 64 -62 121 -113 128 -113 6 0 20 15 31 33 21 33 240
687 240 716 0 21 -132 172 -202 232 -174 148 -295 194 -488 186 -141 -6 -206
-23 -338 -88 -135 -66 -269 -168 -424 -325 -70 -70 -131 -125 -135 -121 -5 6
58 319 104 515 l5 22 -198 -2 c-110 0 -253 -4 -319 -8z"/>
<path d="M33365 5433 c-110 -15 -214 -63 -274 -128 -74 -80 -99 -156 -166
-495 -20 -102 -169 -826 -331 -1610 -161 -784 -296 -1440 -300 -1457 l-6 -33
330 0 c363 0 442 8 541 56 103 51 170 145 210 296 11 40 72 339 135 663 64
325 210 1062 326 1640 115 577 210 1055 210 1062 0 10 -69 13 -322 12 -178 -1
-336 -4 -353 -6z"/>
<path d="M6076 4612 c-123 -563 -139 -670 -139 -942 0 -256 32 -428 114 -609
132 -291 406 -478 784 -536 116 -18 400 -20 520 -5 110 14 245 41 245 50 0 15
-147 218 -239 330 -289 349 -735 765 -1077 1003 -68 47 -73 52 -79 96 -3 25
-8 54 -11 64 -3 9 -1 17 5 17 5 0 276 -135 602 -300 326 -165 594 -298 596
-296 12 12 -188 306 -314 463 -235 292 -585 637 -890 875 l-60 47 -57 -257z"/>
<path d="M8783 4236 c-227 -296 -270 -357 -372 -524 -146 -240 -248 -450 -329
-682 -42 -122 -93 -300 -86 -300 12 0 126 79 190 131 166 135 322 326 441 541
114 204 182 378 247 628 37 146 107 453 103 456 -1 1 -88 -111 -194 -250z"/>
</g>
</svg>
