<?xml version="1.0" encoding="UTF-8"?><svg id="Layer_1" xmlns="http://www.w3.org/2000/svg" viewBox="0 0 460.08 51.98"><path d="m19.94,51.98c-2.93,0-5.62-.37-8.06-1.12-2.45-.74-4.66-1.86-6.62-3.35-1.97-1.49-3.72-3.29-5.26-5.4l6.12-6.91c2.35,3.26,4.65,5.52,6.91,6.77,2.26,1.25,4.8,1.87,7.63,1.87,1.63,0,3.12-.25,4.46-.76,1.34-.5,2.4-1.2,3.17-2.09.77-.89,1.15-1.91,1.15-3.06,0-.82-.16-1.57-.47-2.27-.31-.7-.78-1.32-1.4-1.87-.62-.55-1.39-1.07-2.3-1.55-.91-.48-1.94-.89-3.1-1.22-1.15-.34-2.42-.65-3.82-.94-2.64-.53-4.94-1.24-6.91-2.12-1.97-.89-3.62-1.99-4.97-3.31-1.34-1.32-2.33-2.81-2.95-4.46-.62-1.66-.94-3.54-.94-5.65s.47-4.06,1.4-5.83c.94-1.78,2.22-3.31,3.85-4.61,1.63-1.3,3.53-2.3,5.69-3.02,2.16-.72,4.49-1.08,6.98-1.08,2.83,0,5.36.34,7.6,1.01,2.23.67,4.2,1.67,5.9,2.99,1.7,1.32,3.11,2.92,4.21,4.79l-6.19,6.12c-.96-1.49-2.04-2.72-3.24-3.71-1.2-.98-2.5-1.73-3.89-2.23-1.39-.5-2.86-.76-4.39-.76-1.73,0-3.23.24-4.5.72-1.27.48-2.27,1.16-2.99,2.05-.72.89-1.08,1.96-1.08,3.2,0,.96.22,1.81.65,2.56.43.74,1.04,1.4,1.84,1.98s1.81,1.08,3.06,1.51c1.25.43,2.66.82,4.25,1.15,2.64.53,5.02,1.24,7.13,2.12,2.11.89,3.91,1.94,5.4,3.17,1.49,1.22,2.62,2.62,3.38,4.18.77,1.56,1.15,3.3,1.15,5.22,0,3.31-.78,6.16-2.34,8.53-1.56,2.38-3.76,4.2-6.59,5.47-2.83,1.27-6.14,1.91-9.94,1.91Z"/><path d="m72,51.98c-3.79,0-7.3-.66-10.51-1.98-3.22-1.32-6.01-3.16-8.39-5.51-2.38-2.35-4.21-5.1-5.51-8.24-1.3-3.14-1.94-6.56-1.94-10.26s.66-7.04,1.98-10.19c1.32-3.14,3.18-5.88,5.58-8.21,2.4-2.33,5.22-4.14,8.46-5.44,3.24-1.3,6.73-1.94,10.48-1.94,2.64,0,5.18.36,7.63,1.08,2.45.72,4.66,1.73,6.62,3.02,1.97,1.3,3.6,2.76,4.9,4.39l-5.9,6.19c-1.34-1.3-2.73-2.38-4.14-3.24-1.42-.86-2.89-1.54-4.43-2.02-1.54-.48-3.12-.72-4.75-.72-2.4,0-4.62.43-6.66,1.3-2.04.86-3.82,2.06-5.33,3.6-1.51,1.54-2.7,3.34-3.56,5.4-.86,2.06-1.3,4.32-1.3,6.77s.44,4.58,1.33,6.7c.89,2.11,2.12,3.96,3.71,5.54s3.42,2.82,5.51,3.71c2.09.89,4.31,1.33,6.66,1.33,1.77,0,3.43-.26,4.97-.79,1.54-.53,2.9-1.26,4.1-2.2,1.2-.94,2.12-2.03,2.77-3.28.65-1.25.97-2.59.97-4.03v-1.58l1.3,1.51h-14.9v-8.35h22.82c.1.53.17,1.12.22,1.76.05.65.08,1.27.11,1.87.02.6.04,1.12.04,1.55,0,3.31-.58,6.32-1.73,9.04-1.15,2.71-2.77,5.05-4.86,7.02-2.09,1.97-4.51,3.49-7.27,4.57-2.76,1.08-5.75,1.62-8.96,1.62Z"/><path d="m126,51.98c-3.65,0-6.98-.62-10.01-1.87-3.02-1.25-5.64-3.04-7.85-5.36-2.21-2.33-3.92-5.09-5.15-8.28-1.22-3.19-1.84-6.68-1.84-10.48s.65-7.03,1.94-10.15c1.3-3.12,3.1-5.86,5.4-8.21,2.3-2.35,4.99-4.18,8.06-5.47,3.07-1.3,6.41-1.94,10.01-1.94,2.45,0,4.82.36,7.13,1.08,2.3.72,4.42,1.72,6.34,2.99,1.92,1.27,3.53,2.75,4.82,4.43l-5.98,6.55c-1.25-1.3-2.53-2.39-3.85-3.28-1.32-.89-2.69-1.56-4.1-2.02-1.42-.46-2.87-.68-4.36-.68-2.21,0-4.28.41-6.23,1.22-1.94.82-3.62,1.97-5.04,3.46-1.42,1.49-2.53,3.25-3.35,5.29-.82,2.04-1.22,4.31-1.22,6.8s.4,4.85,1.19,6.91c.79,2.06,1.92,3.84,3.38,5.33,1.46,1.49,3.22,2.63,5.26,3.42,2.04.79,4.28,1.19,6.73,1.19,1.58,0,3.12-.22,4.61-.65,1.49-.43,2.87-1.04,4.14-1.84,1.27-.79,2.44-1.72,3.49-2.77l4.61,7.42c-1.15,1.3-2.69,2.47-4.61,3.53-1.92,1.06-4.07,1.88-6.44,2.48s-4.74.9-7.09.9Z" style="fill:#1e90ff;"/><path d="m148.25,51.26L167.9.86h8.78l19.51,50.4h-9.72l-10.8-28.66c-.24-.58-.56-1.49-.97-2.74-.41-1.25-.85-2.6-1.33-4.07-.48-1.46-.91-2.83-1.3-4.1-.38-1.27-.67-2.2-.86-2.77l1.8-.07c-.29.96-.62,2.04-1.01,3.24-.38,1.2-.79,2.45-1.22,3.74-.43,1.3-.85,2.54-1.26,3.74-.41,1.2-.78,2.28-1.12,3.24l-10.8,28.44h-9.36Zm8.93-11.52l3.24-8.14h22.97l3.46,8.14h-29.66Z" style="fill:#1e90ff;"/><path d="m204.12,51.26V.86h21.89c3.02,0,5.78.71,8.28,2.12,2.5,1.42,4.48,3.34,5.94,5.76,1.46,2.42,2.2,5.15,2.2,8.17s-.73,5.53-2.2,7.96c-1.46,2.42-3.43,4.34-5.9,5.76-2.47,1.42-5.25,2.12-8.32,2.12h-12.74v18.5h-9.14Zm9.14-26.64h12.82c1.39,0,2.6-.32,3.64-.97,1.03-.65,1.84-1.55,2.41-2.7.58-1.15.86-2.42.86-3.82,0-1.58-.36-2.95-1.08-4.1-.72-1.15-1.73-2.06-3.02-2.74-1.3-.67-2.78-1.01-4.46-1.01h-11.16v15.34Zm20.09,26.64l-12.82-22.75,9.65-1.8,14.26,24.62-11.09-.07Z" style="fill:#1e90ff;"/><path d="m264.38,51.26L248.69.86h9.79l8.93,29.74c.29.91.55,1.92.79,3.02.24,1.1.46,2.2.65,3.28.19,1.08.36,2.08.5,2.99.14.91.29,1.68.43,2.3l-1.94-.07c.58-2.26,1.03-4.08,1.37-5.47.33-1.39.64-2.56.9-3.49.26-.94.54-1.81.83-2.63l8.5-21.74h7.99l8.28,21.74c.48,1.34.91,2.63,1.3,3.85.38,1.22.71,2.42.97,3.6.26,1.18.52,2.39.76,3.64l-1.73.36c.19-1.15.33-2.09.43-2.81.1-.72.19-1.37.29-1.94.1-.58.19-1.14.29-1.69.1-.55.25-1.22.47-2.02s.49-1.81.83-3.06l8.86-29.59h9.72l-15.77,50.4h-6.77l-12.82-30.67.86.29-12.17,30.38h-6.84Z"/><path d="m317.38,51.26L337.03.86h8.78l19.51,50.4h-9.72l-10.8-28.66c-.24-.58-.56-1.49-.97-2.74-.41-1.25-.85-2.6-1.33-4.07-.48-1.46-.91-2.83-1.3-4.1-.38-1.27-.67-2.2-.86-2.77l1.8-.07c-.29.96-.62,2.04-1.01,3.24-.38,1.2-.79,2.45-1.22,3.74-.43,1.3-.85,2.54-1.26,3.74-.41,1.2-.78,2.28-1.12,3.24l-10.8,28.44h-9.36Zm8.93-11.52l3.24-8.14h22.97l3.46,8.14h-29.66Z"/><path d="m389.23,51.98c-2.93,0-5.62-.37-8.06-1.12-2.45-.74-4.66-1.86-6.62-3.35-1.97-1.49-3.72-3.29-5.26-5.4l6.12-6.91c2.35,3.26,4.66,5.52,6.91,6.77,2.26,1.25,4.8,1.87,7.63,1.87,1.63,0,3.12-.25,4.46-.76s2.4-1.2,3.17-2.09c.77-.89,1.15-1.91,1.15-3.06,0-.82-.16-1.57-.47-2.27-.31-.7-.78-1.32-1.4-1.87-.62-.55-1.39-1.07-2.3-1.55-.91-.48-1.94-.89-3.1-1.22-1.15-.34-2.42-.65-3.82-.94-2.64-.53-4.94-1.24-6.91-2.12-1.97-.89-3.62-1.99-4.97-3.31-1.34-1.32-2.33-2.81-2.95-4.46-.62-1.66-.94-3.54-.94-5.65s.47-4.06,1.4-5.83c.94-1.78,2.22-3.31,3.85-4.61,1.63-1.3,3.53-2.3,5.69-3.02,2.16-.72,4.49-1.08,6.98-1.08,2.83,0,5.36.34,7.6,1.01,2.23.67,4.2,1.67,5.9,2.99,1.7,1.32,3.11,2.92,4.21,4.79l-6.19,6.12c-.96-1.49-2.04-2.72-3.24-3.71-1.2-.98-2.5-1.73-3.89-2.23-1.39-.5-2.86-.76-4.39-.76-1.73,0-3.23.24-4.5.72-1.27.48-2.27,1.16-2.99,2.05-.72.89-1.08,1.96-1.08,3.2,0,.96.22,1.81.65,2.56.43.74,1.04,1.4,1.84,1.98s1.81,1.08,3.06,1.51c1.25.43,2.66.82,4.25,1.15,2.64.53,5.02,1.24,7.13,2.12,2.11.89,3.91,1.94,5.4,3.17,1.49,1.22,2.62,2.62,3.38,4.18.77,1.56,1.15,3.3,1.15,5.22,0,3.31-.78,6.16-2.34,8.53-1.56,2.38-3.76,4.2-6.59,5.47-2.83,1.27-6.15,1.91-9.94,1.91Z"/><path d="m418.39,51.26V.86h9.36v50.4h-9.36Zm3.89-20.74v-8.78h32.98v8.78h-32.98Zm28.44,20.74V.86h9.36v50.4h-9.36Z"/></svg>