<?xml version="1.0" standalone="no"?>
<!DOCTYPE svg PUBLIC "-//W3C//DTD SVG 20010904//EN"
 "http://www.w3.org/TR/2001/REC-SVG-20010904/DTD/svg10.dtd">
<svg version="1.0" xmlns="http://www.w3.org/2000/svg"
 width="4326.000000pt" height="4326.000000pt" viewBox="0 0 4326.000000 4326.000000"
 preserveAspectRatio="xMidYMid meet">
<metadata>
Created by potrace 1.14, written by Peter Selinger 2001-2017
</metadata>
<g transform="translate(0.000000,4326.000000) scale(0.100000,-0.100000)"
fill="#000000" stroke="none">
<path d="M11828 43255 c-2 -2 -32 -6 -68 -9 -36 -3 -75 -8 -86 -10 -12 -2 -37
-7 -55 -10 -309 -52 -614 -169 -884 -340 -44 -28 -82 -53 -85 -56 -3 -3 -32
-25 -65 -49 -207 -152 -420 -379 -570 -606 -142 -215 -286 -549 -331 -770 -2
-11 -6 -30 -9 -42 -13 -59 -15 -71 -21 -113 -3 -25 -8 -54 -10 -65 -20 -104
-27 -486 -11 -612 16 -132 19 -149 29 -188 6 -22 12 -49 13 -60 2 -11 6 -30 9
-42 10 -39 17 -67 22 -90 2 -12 9 -35 15 -50 6 -16 12 -35 14 -43 9 -43 84
-226 133 -324 50 -101 156 -284 172 -296 3 -3 21 -27 40 -54 133 -196 396
-443 640 -602 94 -61 355 -195 414 -213 17 -6 72 -24 121 -41 50 -17 99 -32
110 -35 11 -2 20 -4 20 -5 0 -3 59 -17 145 -34 65 -14 77 -16 111 -21 211 -32
550 -37 679 -10 14 3 39 7 55 9 59 9 101 17 180 37 44 11 90 22 102 25 130 27
480 188 643 295 255 168 493 396 678 651 23 31 42 61 42 67 0 5 4 11 8 13 21
8 216 372 226 420 2 7 8 27 15 43 50 122 107 333 127 470 3 22 7 51 10 65 21
124 22 451 0 580 -3 14 -7 43 -10 65 -6 42 -13 81 -22 127 -3 15 -6 31 -6 35
0 5 -4 18 -9 31 -5 12 -11 33 -13 45 -8 44 -80 259 -94 282 -4 6 -7 15 -8 21
-3 22 -110 234 -163 323 -137 230 -388 515 -594 675 -291 226 -648 397 -960
461 -10 2 -26 6 -35 9 -17 5 -50 11 -112 21 -19 2 -53 8 -75 11 -43 7 -471 15
-477 9z m317 -1958 c11 -3 27 -7 35 -9 75 -17 228 -134 268 -206 64 -115 82
-254 47 -368 -18 -55 -32 -85 -79 -159 -33 -51 -138 -136 -212 -172 -256 -122
-572 38 -649 329 -24 90 -16 257 16 343 48 129 129 204 262 239 51 14 266 16
312 3z"/>
<path d="M31187 36624 c-1 -1 -74 -5 -162 -9 -88 -3 -183 -8 -212 -10 -82 -6
-205 -16 -238 -19 -16 -2 -68 -7 -115 -11 -47 -4 -93 -9 -102 -10 -9 -2 -43
-6 -75 -10 -32 -3 -71 -8 -88 -11 -16 -3 -43 -7 -60 -9 -16 -1 -48 -6 -70 -9
-22 -3 -58 -8 -80 -11 -66 -10 -101 -15 -190 -31 -16 -3 -39 -7 -50 -8 -11 -2
-45 -8 -75 -14 -30 -7 -71 -14 -90 -17 -19 -3 -42 -8 -50 -10 -8 -2 -27 -7
-42 -10 -16 -3 -40 -7 -55 -10 -16 -3 -36 -8 -45 -11 -10 -3 -30 -7 -45 -10
-16 -3 -66 -14 -113 -25 -47 -11 -92 -22 -100 -24 -59 -13 -233 -59 -271 -71
-25 -8 -54 -16 -65 -18 -10 -2 -44 -11 -74 -20 -30 -9 -59 -17 -65 -17 -5 -1
-35 -11 -65 -21 -30 -11 -59 -21 -65 -22 -58 -15 -71 -20 -80 -25 -5 -3 -14
-6 -20 -7 -11 -2 -190 -61 -215 -71 -8 -3 -19 -7 -25 -9 -50 -12 -482 -180
-593 -230 -29 -13 -55 -24 -57 -24 -2 0 -34 -13 -70 -30 -36 -16 -67 -30 -70
-30 -2 0 -41 -18 -85 -39 -44 -22 -82 -39 -83 -39 -3 2 -444 -218 -527 -263
-41 -22 -104 -56 -140 -76 -36 -20 -90 -50 -120 -66 -300 -166 -699 -441 -995
-687 -364 -303 -752 -707 -1036 -1080 -133 -174 -347 -485 -403 -585 -9 -16
-31 -52 -48 -80 -90 -146 -298 -536 -298 -560 0 -8 -4 -15 -10 -15 -5 0 -10
-4 -10 -9 0 -5 -15 -42 -34 -83 -52 -113 -95 -208 -96 -213 -1 -6 -28 -73 -44
-110 -17 -37 -78 -196 -81 -210 -1 -5 -8 -23 -14 -40 -7 -16 -14 -34 -15 -40
-1 -5 -4 -14 -7 -20 -6 -10 -20 -61 -19 -70 0 -3 -7 -19 -15 -35 -9 -17 -13
-30 -9 -30 4 0 2 -6 -3 -12 -5 -7 -15 -33 -22 -58 -8 -25 -20 -62 -27 -83 -8
-20 -14 -39 -14 -42 0 -3 -2 -10 -5 -17 -12 -37 -102 -388 -111 -433 -2 -11
-6 -29 -9 -40 -9 -39 -53 -261 -59 -295 -3 -19 -8 -46 -11 -60 -3 -14 -7 -41
-10 -60 -3 -19 -7 -46 -9 -60 -4 -24 -15 -98 -21 -150 -2 -14 -6 -46 -9 -72
-11 -92 -23 -205 -32 -318 -23 -296 -23 -757 1 -1055 7 -97 15 -183 19 -215 3
-19 8 -60 11 -91 3 -31 7 -65 9 -75 2 -11 7 -44 11 -74 4 -30 9 -64 11 -75 2
-10 6 -35 9 -55 3 -20 7 -47 10 -60 3 -13 7 -42 11 -64 3 -22 7 -43 9 -46 2
-3 6 -23 9 -44 4 -22 13 -71 22 -110 19 -91 18 -83 49 -206 14 -58 28 -114 30
-125 3 -11 16 -58 30 -105 14 -47 27 -92 29 -100 25 -99 190 -552 244 -670 14
-30 27 -61 28 -68 1 -6 48 -105 104 -220 56 -114 102 -209 102 -212 1 -3 8
-21 16 -39 49 -118 23 -231 -88 -396 -8 -12 -38 -55 -66 -96 -72 -105 -911
-1361 -958 -1434 -21 -33 -83 -129 -137 -212 -55 -84 -99 -155 -99 -158 0 -3
-5 -11 -10 -18 -30 -35 -330 -522 -330 -535 0 -6 -4 -12 -9 -14 -13 -5 -155
-256 -257 -456 -51 -100 -94 -184 -94 -187 -2 -8 -110 -239 -126 -267 -8 -16
-12 -28 -8 -28 3 0 2 -6 -4 -12 -8 -11 -34 -65 -117 -253 -30 -67 -68 -152
-82 -185 -9 -19 -28 -62 -43 -95 -16 -33 -38 -82 -50 -110 -12 -27 -40 -88
-62 -135 l-40 -85 -55 115 c-30 63 -70 153 -90 200 -19 47 -41 99 -48 115 -8
17 -45 102 -83 190 -84 191 -111 253 -165 365 -22 47 -41 90 -42 95 -8 36
-424 856 -501 988 -19 32 -34 60 -34 62 0 2 -14 28 -31 57 -17 29 -47 82 -67
118 -19 36 -38 67 -42 70 -4 3 -9 12 -13 20 -3 8 -22 42 -42 75 -19 33 -43 75
-52 93 -9 17 -20 32 -25 32 -4 0 -8 5 -8 10 0 12 -190 318 -300 485 -201 303
-461 660 -665 914 -59 74 -124 157 -143 185 -20 28 -39 53 -43 56 -17 14 -81
164 -97 228 -22 87 -21 198 2 287 15 60 41 136 56 165 10 19 18 37 18 40 0 3
21 50 47 105 66 141 68 146 124 282 28 68 51 129 51 136 0 7 4 17 9 23 8 8
141 389 145 416 1 7 5 19 9 26 5 6 6 12 3 12 -3 0 4 26 15 58 11 31 20 58 20
59 0 2 1 8 4 15 4 14 74 301 81 333 2 11 7 34 9 50 3 17 8 37 10 45 2 8 7 29
10 45 2 17 7 41 10 55 6 29 13 66 20 113 3 17 10 57 15 87 14 82 18 110 25
170 3 30 8 66 10 80 2 14 7 54 10 90 4 36 8 83 11 105 34 330 34 877 -1 1240
-3 33 -8 82 -10 109 -3 27 -7 65 -10 85 -3 20 -7 56 -10 81 -3 25 -8 57 -10
71 -3 14 -7 41 -9 60 -9 63 -22 145 -31 189 -2 13 -7 42 -11 64 -3 22 -7 44
-10 47 -2 4 -6 22 -9 40 -5 39 -12 73 -19 97 -3 9 -7 28 -10 42 -2 14 -10 48
-16 75 -6 28 -13 58 -15 68 -2 10 -7 27 -10 37 -3 10 -7 27 -9 37 -6 30 -42
163 -62 228 -10 33 -19 63 -20 68 -1 4 -2 8 -4 10 -1 1 -3 10 -5 21 -3 15 -29
97 -53 166 -3 8 -6 20 -8 25 -4 14 -44 127 -51 145 -3 8 -7 17 -7 20 -1 3 -6
19 -13 35 -6 17 -21 57 -33 90 -13 33 -29 74 -36 90 -7 17 -22 53 -33 80 -10
28 -32 77 -47 110 -15 33 -28 62 -29 65 -4 24 -214 447 -285 575 -93 167 -267
447 -282 453 -5 2 -8 8 -8 13 0 10 -55 94 -140 210 -30 43 -62 87 -70 99 -8
12 -22 30 -30 40 -8 11 -26 34 -40 51 -49 63 -184 234 -190 239 -3 3 -48 54
-100 114 -475 546 -1071 1039 -1695 1401 -214 124 -475 257 -740 375 -38 17
-79 35 -90 40 -102 46 -515 218 -540 224 -5 2 -17 6 -25 9 -103 41 -500 177
-500 171 0 -2 -13 2 -29 10 -15 8 -39 17 -52 20 -13 2 -44 11 -69 19 -92 30
-190 58 -217 63 -14 3 -30 7 -35 10 -9 6 -114 34 -179 49 -12 2 -36 9 -53 14
-17 6 -42 12 -56 15 -27 5 -49 11 -127 30 -10 3 -72 17 -138 31 -66 15 -129
28 -140 31 -11 2 -31 6 -45 9 -14 3 -36 7 -50 10 -14 3 -38 8 -55 11 -16 3
-48 9 -70 14 -22 5 -58 11 -80 14 -23 4 -50 8 -62 10 -11 3 -38 7 -59 10 -22
4 -64 11 -94 16 -62 10 -110 17 -233 35 -19 2 -60 7 -92 11 -32 3 -68 8 -79
10 -12 2 -50 6 -86 10 -36 3 -76 7 -90 9 -14 3 -59 7 -100 11 -41 3 -93 8
-115 10 -22 1 -85 6 -140 9 -55 4 -116 9 -135 11 -225 23 -1031 22 -1410 -1
-71 -4 -234 -15 -285 -20 -22 -1 -76 -6 -120 -9 -44 -4 -96 -9 -115 -11 -35
-4 -126 -14 -190 -21 -72 -7 -136 -15 -170 -19 -19 -2 -57 -7 -85 -10 -46 -6
-66 -9 -135 -20 -14 -2 -45 -6 -70 -9 -25 -3 -54 -8 -65 -10 -11 -2 -40 -7
-65 -10 -25 -3 -54 -8 -65 -10 -11 -2 -42 -7 -69 -10 -27 -4 -52 -9 -55 -10
-3 -2 -26 -7 -51 -10 -25 -3 -55 -8 -66 -10 -12 -2 -37 -7 -55 -10 -19 -3 -45
-8 -59 -11 -14 -3 -41 -8 -60 -11 -19 -3 -42 -7 -50 -9 -8 -2 -31 -7 -50 -10
-19 -3 -69 -13 -110 -21 -41 -9 -84 -18 -95 -20 -11 -2 -33 -7 -50 -10 -16 -3
-58 -11 -91 -19 -34 -8 -74 -17 -88 -20 -27 -5 -54 -11 -96 -20 -14 -3 -38 -8
-54 -10 -15 -2 -36 -7 -46 -10 -19 -6 -45 -12 -95 -21 -16 -2 -46 -9 -65 -14
-19 -5 -71 -17 -115 -26 -44 -9 -88 -18 -98 -20 -65 -15 -251 -55 -277 -60
-22 -5 -72 -16 -135 -30 -11 -3 -32 -7 -48 -9 -15 -2 -31 -6 -35 -9 -4 -2 -27
-7 -52 -11 -25 -4 -47 -8 -51 -10 -3 -2 -19 -7 -35 -9 -16 -3 -40 -8 -54 -11
-14 -3 -36 -8 -50 -11 -14 -3 -41 -9 -60 -14 -19 -5 -48 -11 -65 -14 -16 -3
-45 -10 -63 -15 -18 -5 -35 -10 -37 -10 -3 0 -18 -2 -33 -5 -15 -4 -36 -8 -47
-10 -11 -3 -40 -9 -65 -15 -25 -5 -61 -13 -80 -16 -19 -3 -43 -8 -52 -11 -9
-3 -27 -7 -40 -10 -13 -3 -32 -7 -43 -9 -11 -3 -30 -7 -43 -9 -13 -3 -31 -7
-40 -10 -9 -3 -28 -7 -42 -10 -14 -2 -47 -10 -75 -16 -27 -6 -61 -14 -75 -16
-14 -3 -61 -13 -105 -23 -76 -18 -111 -26 -163 -36 -13 -2 -33 -7 -44 -11 -11
-3 -30 -7 -41 -9 -19 -3 -62 -12 -92 -19 -5 -2 -28 -6 -50 -10 -22 -4 -53 -12
-70 -16 -16 -5 -41 -11 -55 -14 -24 -5 -90 -19 -140 -30 -14 -3 -36 -8 -50
-11 -83 -18 -97 -21 -137 -30 -22 -5 -40 -9 -93 -20 -60 -13 -71 -15 -90 -20
-34 -9 -122 -26 -135 -26 -2 0 -19 -5 -37 -10 -18 -5 -45 -12 -60 -14 -16 -3
-56 -12 -90 -20 -35 -8 -78 -17 -97 -20 -19 -3 -37 -7 -40 -9 -3 -2 -22 -7
-41 -10 -47 -8 -78 -14 -98 -20 -9 -3 -33 -8 -52 -11 -19 -3 -51 -10 -70 -15
-19 -5 -48 -12 -65 -14 -16 -3 -41 -8 -55 -11 -14 -3 -36 -8 -50 -11 -14 -3
-32 -7 -40 -9 -8 -3 -33 -7 -55 -11 -22 -3 -43 -8 -46 -10 -3 -2 -19 -6 -35
-8 -16 -3 -40 -8 -54 -11 -14 -4 -34 -8 -45 -10 -11 -2 -31 -6 -45 -9 -14 -4
-36 -8 -50 -11 -47 -9 -75 -15 -100 -20 -79 -17 -116 -26 -125 -29 -5 -1 -30
-8 -55 -15 -86 -24 -189 -60 -247 -87 -32 -15 -60 -28 -63 -28 -15 -3 -113
-66 -165 -107 -175 -138 -269 -305 -313 -559 -8 -48 -8 -217 1 -260 4 -19 9
-47 12 -63 6 -28 35 -106 63 -167 33 -73 123 -198 193 -268 91 -91 183 -161
319 -242 322 -192 569 -398 775 -645 67 -81 198 -271 230 -335 10 -19 21 -37
24 -40 7 -6 133 -275 135 -290 1 -3 15 -39 33 -80 18 -41 53 -124 78 -185 25
-60 50 -120 55 -132 6 -13 14 -33 19 -45 5 -13 21 -50 35 -83 43 -103 146
-355 146 -359 0 -2 8 -21 17 -42 9 -22 17 -41 18 -44 1 -3 6 -16 12 -30 6 -14
57 -140 113 -280 55 -140 106 -266 112 -280 6 -14 14 -34 18 -45 43 -110 84
-215 93 -235 5 -14 11 -29 13 -35 3 -13 111 -292 126 -325 18 -40 25 -60 62
-160 19 -52 40 -108 47 -125 7 -16 13 -32 13 -35 1 -5 23 -63 36 -95 5 -11 20
-51 34 -90 14 -38 31 -83 37 -100 7 -16 13 -34 15 -40 2 -12 42 -122 54 -150
11 -29 94 -256 125 -345 15 -41 29 -82 32 -90 3 -8 7 -19 9 -25 2 -10 49 -136
61 -165 3 -8 7 -19 9 -25 6 -27 277 -754 316 -850 11 -27 24 -59 28 -70 4 -11
13 -33 21 -50 7 -16 13 -32 13 -35 1 -6 21 -56 44 -110 8 -19 18 -44 22 -55
28 -70 84 -205 96 -230 7 -16 24 -57 37 -90 14 -33 39 -89 55 -125 16 -36 40
-87 52 -115 122 -271 298 -620 432 -855 33 -58 72 -125 86 -150 14 -25 29 -46
34 -48 4 -2 8 -8 8 -14 0 -16 188 -311 202 -316 4 -2 8 -10 8 -18 0 -8 5 -14
10 -14 6 0 10 -5 10 -10 0 -12 106 -161 244 -345 138 -183 367 -453 516 -607
272 -282 479 -471 765 -699 229 -182 724 -519 763 -519 6 0 12 -4 14 -8 2 -5
46 -32 98 -61 52 -28 106 -58 120 -66 24 -15 414 -207 455 -225 11 -5 46 -21
79 -35 167 -74 538 -212 548 -204 2 1 13 -3 26 -10 13 -7 31 -14 40 -16 9 -2
69 -20 132 -40 63 -19 125 -37 138 -40 13 -2 38 -9 55 -14 18 -6 43 -13 57
-15 14 -3 52 -12 85 -21 33 -8 69 -17 80 -19 30 -7 57 -14 85 -20 14 -3 36 -8
50 -10 14 -3 50 -10 80 -16 30 -6 69 -13 85 -15 17 -3 41 -7 55 -10 34 -7 67
-13 115 -20 23 -3 50 -7 60 -9 11 -2 47 -7 80 -11 33 -4 71 -8 85 -10 24 -3
119 -14 185 -20 280 -28 961 -28 1230 1 28 3 68 7 90 9 37 3 122 13 170 20 11
1 44 6 74 10 30 3 63 9 75 11 12 2 37 6 56 9 19 3 46 7 60 10 14 3 39 7 55 9
17 3 50 9 75 15 42 9 59 13 135 26 17 3 38 8 47 11 9 3 25 6 35 8 10 2 74 18
143 36 69 17 132 33 140 35 8 1 42 11 75 21 33 10 62 19 65 19 39 9 258 79
290 92 8 3 20 7 25 9 16 3 208 73 230 83 11 5 67 28 125 51 58 23 111 47 118
52 6 6 12 8 12 5 0 -19 591 278 785 394 17 10 44 26 60 35 17 9 55 33 85 53
30 19 57 35 60 36 7 1 299 195 313 209 7 6 32 24 57 40 137 89 401 302 714
575 120 105 219 191 221 191 2 0 47 -66 102 -147 54 -82 100 -150 103 -153 3
-3 56 -81 117 -175 62 -93 117 -175 122 -182 6 -7 11 -15 11 -18 0 -3 24 -42
53 -88 52 -79 207 -329 257 -412 13 -22 28 -41 32 -43 4 -2 8 -8 8 -13 0 -9
99 -182 117 -204 4 -5 21 -35 37 -65 16 -30 37 -67 48 -82 10 -14 18 -31 18
-36 0 -6 3 -12 8 -14 4 -1 15 -19 24 -38 16 -32 32 -62 102 -185 13 -22 42
-76 66 -120 23 -44 59 -109 78 -145 41 -75 322 -636 322 -643 0 -3 24 -56 54
-118 52 -110 226 -505 226 -513 0 -2 7 -20 15 -40 8 -20 15 -39 16 -43 0 -5 6
-17 13 -28 7 -11 20 -40 29 -65 9 -25 22 -58 28 -75 7 -16 13 -32 14 -35 0 -3
20 -54 44 -115 24 -60 44 -114 46 -120 1 -5 5 -17 8 -25 31 -74 175 -505 231
-695 20 -66 40 -133 45 -150 8 -25 17 -57 37 -130 2 -5 5 -20 8 -32 2 -12 14
-56 26 -99 12 -42 24 -87 26 -100 2 -13 9 -35 14 -49 5 -14 7 -25 5 -25 -2 0
0 -11 5 -26 6 -14 12 -39 15 -57 3 -18 8 -40 11 -49 5 -17 12 -46 20 -88 3
-14 9 -41 14 -60 5 -19 12 -50 15 -69 3 -19 7 -37 9 -40 2 -3 7 -24 10 -46 4
-22 13 -74 22 -115 9 -41 17 -88 19 -104 3 -15 6 -35 9 -45 3 -9 8 -34 11 -56
3 -23 8 -52 11 -65 2 -14 7 -38 9 -55 2 -16 7 -48 10 -70 4 -22 8 -52 11 -67
2 -16 6 -40 8 -55 3 -16 7 -48 11 -73 4 -25 8 -56 10 -70 3 -14 7 -50 11 -80
3 -30 7 -66 9 -80 2 -14 6 -54 9 -90 4 -36 9 -76 11 -90 6 -37 32 -363 40
-505 5 -80 18 -511 19 -605 l1 -75 -2350 -1 c-2327 0 -2595 -3 -2890 -29 -149
-13 -242 -23 -295 -30 -14 -2 -45 -6 -70 -10 -25 -3 -58 -8 -75 -10 -32 -4
-83 -12 -125 -20 -14 -3 -41 -7 -60 -10 -114 -19 -484 -105 -595 -139 -5 -1
-30 -8 -55 -15 -25 -7 -52 -15 -60 -18 -8 -4 -18 -7 -22 -8 -5 -2 -9 -3 -10
-4 -2 -2 -12 -4 -24 -6 -36 -7 -305 -106 -414 -153 -56 -24 -79 -32 -84 -29
-2 1 -13 -7 -25 -17 -12 -11 -21 -16 -21 -12 0 4 -12 0 -27 -8 -16 -8 -77 -38
-138 -67 -60 -29 -112 -55 -115 -58 -3 -3 -36 -22 -75 -41 -38 -19 -132 -72
-207 -117 -684 -411 -1285 -992 -1780 -1718 -95 -140 -278 -429 -278 -439 0
-3 -17 -34 -38 -68 -86 -141 -295 -551 -307 -603 -2 -11 -6 -21 -40 -105 -22
-52 -95 -261 -100 -284 -1 -6 -5 -18 -8 -26 -6 -16 -36 -123 -43 -153 -2 -9
-6 -26 -9 -37 -3 -11 -8 -30 -11 -42 -3 -13 -6 -27 -8 -33 -8 -29 -16 -63 -20
-85 -2 -14 -10 -47 -16 -75 -7 -27 -14 -59 -15 -70 -4 -24 -11 -60 -19 -95 -3
-14 -8 -41 -11 -60 -2 -19 -7 -46 -10 -60 -3 -14 -7 -42 -10 -64 -3 -21 -7
-50 -9 -65 -3 -14 -7 -45 -10 -68 -3 -24 -9 -61 -12 -84 -3 -22 -7 -55 -9 -72
-2 -18 -6 -59 -10 -92 -10 -79 -12 -106 -20 -190 -4 -38 -8 -86 -10 -105 -4
-39 -13 -153 -20 -250 -5 -62 -7 -98 -20 -285 -12 -173 -24 -274 -45 -405 -5
-30 -12 -73 -15 -95 -3 -22 -7 -47 -10 -55 -2 -8 -6 -26 -9 -40 -3 -14 -7 -34
-10 -45 -2 -11 -10 -42 -16 -70 -6 -27 -14 -61 -16 -74 -3 -13 -9 -32 -15 -43
-5 -10 -7 -18 -4 -18 3 0 -1 -16 -9 -35 -9 -20 -15 -39 -16 -43 0 -14 -42
-138 -76 -227 -301 -788 -872 -1443 -1724 -1977 -78 -48 -241 -130 -335 -168
-44 -17 -89 -36 -100 -40 -63 -27 -296 -93 -373 -106 -15 -3 -35 -7 -45 -10
-10 -3 -30 -7 -45 -9 -15 -3 -38 -7 -52 -9 -13 -3 -42 -8 -65 -11 -22 -4 -51
-8 -65 -10 -224 -34 -532 -52 -1025 -61 -110 -2 -1068 -6 -2130 -9 -1922 -5
-2394 -9 -2470 -20 -22 -3 -56 -8 -75 -11 -62 -9 -127 -22 -155 -31 -11 -4
-22 -7 -25 -8 -55 -10 -234 -100 -270 -135 -8 -8 -35 -31 -60 -50 -116 -89
-234 -275 -279 -440 -27 -97 -35 -154 -35 -265 0 -103 6 -153 28 -240 37 -150
145 -343 248 -443 80 -77 122 -112 134 -112 6 0 17 -6 23 -14 20 -24 192 -104
203 -95 2 1 12 -3 24 -9 11 -6 32 -13 45 -15 13 -3 42 -10 64 -15 22 -6 65
-14 95 -18 30 -3 69 -8 85 -11 17 -2 831 -4 1810 -3 979 2 10283 3 20675 4
10392 0 18911 4 18930 8 19 4 49 10 65 13 73 12 94 17 150 36 263 89 490 304
591 561 12 32 20 58 17 58 -3 0 -1 6 4 13 6 6 14 30 18 52 4 22 9 51 12 65 11
54 9 209 -4 280 -65 359 -346 683 -667 766 -115 30 -229 46 -426 60 -30 2
-752 6 -1605 8 -1468 4 -2973 14 -3115 21 -75 3 -281 16 -325 20 -78 7 -172
17 -195 21 -14 2 -45 7 -70 10 -182 22 -462 86 -656 149 -206 68 -384 146
-564 249 -101 57 -300 187 -329 214 -8 7 -26 21 -40 30 -14 9 -35 24 -46 33
-350 286 -560 499 -775 785 -144 191 -309 470 -394 664 -16 36 -37 83 -47 105
-32 71 -98 245 -92 245 3 0 1 6 -4 13 -9 11 -55 149 -54 162 0 2 -7 24 -15 47
-9 24 -18 52 -20 63 -3 11 -6 25 -8 30 -5 19 -54 220 -62 260 -3 11 -7 38 -10
60 -3 22 -9 56 -14 75 -5 19 -11 53 -15 75 -3 23 -7 50 -9 60 -2 11 -7 45 -10
76 -4 31 -9 66 -11 78 -4 20 -9 72 -20 196 -7 74 -15 199 -20 315 -6 119 -12
222 -20 300 -12 131 -16 170 -20 188 -2 10 -6 43 -9 73 -3 30 -8 65 -11 79 -3
14 -7 43 -10 65 -3 22 -7 51 -10 65 -3 14 -8 41 -11 60 -8 44 -23 115 -40 195
-2 11 -6 29 -8 40 -17 82 -80 317 -112 420 -14 44 -27 86 -30 93 -2 7 -3 13
-2 15 1 1 -4 12 -11 25 -7 13 -14 32 -16 43 -6 29 -66 189 -124 327 -192 458
-418 855 -708 1239 -50 67 -101 132 -111 145 -11 13 -55 65 -98 117 -235 283
-584 616 -884 844 -41 31 -80 61 -86 66 -65 53 -333 232 -454 304 -17 9 -45
26 -62 36 -140 84 -541 291 -563 291 -3 0 -24 9 -48 19 -99 45 -187 81 -322
131 -54 20 -287 100 -295 102 -3 0 -9 2 -15 4 -14 4 -98 27 -110 29 -5 2 -41
12 -80 23 -38 12 -81 23 -95 26 -14 3 -36 8 -50 11 -14 3 -36 8 -50 11 -14 3
-33 7 -42 10 -16 5 -35 9 -88 19 -14 3 -36 7 -50 10 -14 3 -36 8 -50 10 -14 2
-36 6 -50 9 -13 3 -42 8 -65 11 -22 3 -47 8 -55 10 -8 2 -37 7 -65 10 -27 3
-61 7 -75 10 -61 10 -181 23 -280 30 -19 2 -80 6 -135 11 -55 4 -1412 8 -3015
9 -2644 1 -3033 3 -3059 19 -4 3 -7 36 -6 73 5 150 17 441 20 488 8 130 16
244 20 285 2 25 7 74 10 110 5 65 11 119 19 195 3 22 7 68 11 103 4 35 8 73
11 85 2 12 6 48 9 81 4 33 8 62 9 65 2 3 7 31 10 62 4 31 9 67 11 80 3 13 7
42 10 64 3 22 7 51 10 65 2 13 7 40 10 60 5 35 10 61 20 110 2 14 7 40 10 58
3 17 8 47 11 65 3 17 8 41 10 52 1 11 5 31 9 45 5 26 11 55 20 105 4 17 12 58
20 91 8 34 17 74 20 88 10 50 22 105 30 136 3 11 7 28 9 38 2 9 16 64 31 122
27 105 31 122 40 161 2 12 12 47 21 78 9 31 17 61 18 66 6 24 29 103 41 142 8
23 16 52 19 65 2 13 11 43 19 68 8 25 34 106 57 180 42 133 102 313 142 420
11 30 21 60 22 65 2 6 8 21 13 35 6 14 22 57 36 95 14 39 31 84 38 100 7 17
13 32 14 35 5 15 18 48 26 65 4 11 22 56 39 100 17 44 35 89 40 100 5 11 18
43 30 70 12 28 25 59 30 70 136 324 383 839 555 1160 185 346 376 676 592
1026 152 245 334 523 345 527 4 2 8 8 8 14 0 5 11 24 25 42 14 18 25 38 25 44
0 6 4 12 8 14 4 2 52 68 106 148 55 80 102 147 105 150 4 3 31 42 61 87 30 45
60 82 65 83 6 0 49 -39 96 -88 121 -123 272 -266 359 -342 41 -35 82 -71 91
-80 55 -52 364 -292 485 -376 55 -37 101 -72 102 -76 2 -4 8 -8 13 -8 4 0 48
-26 96 -58 254 -169 627 -370 913 -492 69 -29 143 -60 165 -70 37 -16 67 -27
208 -80 119 -44 412 -134 419 -128 2 1 12 -4 24 -10 11 -6 32 -13 45 -16 20
-4 116 -28 169 -41 86 -22 161 -40 215 -50 17 -3 62 -12 100 -20 39 -8 84 -17
100 -20 17 -2 41 -7 55 -10 14 -3 41 -7 60 -10 19 -3 45 -7 56 -9 32 -6 94
-16 134 -22 19 -2 46 -6 60 -9 14 -2 50 -7 80 -11 30 -3 66 -8 80 -9 14 -2 50
-7 80 -10 30 -3 71 -8 90 -10 19 -3 71 -8 115 -11 44 -3 98 -7 120 -9 264 -24
811 -24 1100 0 88 7 169 15 205 20 35 5 109 14 165 20 17 2 48 7 70 10 22 3
56 8 75 10 19 3 46 7 60 10 32 7 59 12 101 19 19 3 45 8 59 11 14 3 36 7 50
10 14 3 36 7 50 10 14 3 45 10 70 15 34 7 292 73 365 93 48 14 132 39 143 42
7 3 13 4 15 5 4 0 261 90 277 97 8 3 17 7 20 7 21 5 107 41 114 48 6 4 16 8
24 8 7 0 33 9 58 20 24 11 65 29 92 41 26 11 63 27 82 36 70 30 347 168 410
204 36 20 92 51 125 69 33 18 125 73 205 123 759 473 1480 1150 2077 1950 165
221 426 622 547 840 14 26 37 67 50 90 14 24 37 66 52 93 32 58 293 574 292
577 -1 2 20 48 78 175 19 41 34 75 34 77 0 2 13 32 29 67 27 60 94 217 97 228
0 3 9 23 19 45 22 50 138 345 172 440 14 39 29 79 34 90 14 33 114 312 154
430 20 61 41 119 45 130 16 36 219 653 224 680 1 6 5 15 8 21 4 6 9 21 12 35
3 13 10 38 15 54 17 49 73 219 76 230 1 5 5 17 8 25 5 14 30 89 32 100 1 3 4
12 8 20 7 17 68 200 71 215 2 6 6 18 10 27 4 9 9 22 10 30 2 7 6 22 10 33 5
11 12 31 16 45 59 171 94 274 110 315 44 117 92 251 95 260 1 6 7 24 14 40 7
17 33 84 58 150 25 66 61 158 80 205 73 178 157 377 178 425 13 28 33 73 45
100 195 434 449 906 629 1170 197 288 402 507 671 718 23 18 162 110 186 123
11 6 54 31 95 55 282 166 457 380 513 627 20 88 14 365 -9 402 -2 4 -7 22 -10
40 -10 54 -60 176 -104 250 -51 85 -133 175 -214 235 -34 25 -67 48 -72 53
-29 21 -215 104 -215 96 0 -2 -12 2 -27 9 -28 14 -127 41 -193 52 -19 3 -48 8
-65 11 -16 3 -43 7 -60 10 -16 2 -41 6 -55 9 -13 2 -40 7 -60 10 -34 5 -53 8
-110 20 -14 2 -43 7 -65 10 -23 3 -52 7 -65 10 -13 3 -40 7 -60 10 -20 3 -45
7 -57 9 -27 6 -91 16 -128 21 -16 3 -41 7 -55 10 -14 3 -41 8 -60 11 -51 8
-78 13 -145 25 -33 6 -69 13 -80 14 -11 2 -36 6 -55 10 -19 3 -48 8 -65 11
-16 3 -37 7 -46 10 -10 2 -30 6 -45 9 -44 5 -97 15 -115 21 -10 2 -30 6 -45 9
-16 2 -63 10 -104 19 -41 8 -90 18 -109 21 -19 3 -37 7 -40 9 -3 2 -22 7 -41
10 -36 6 -70 12 -105 20 -11 3 -65 14 -120 26 -55 11 -116 25 -135 30 -19 5
-48 11 -65 14 -29 5 -49 9 -105 21 -38 9 -63 14 -85 19 -28 6 -347 77 -365 81
-8 2 -49 11 -90 20 -41 9 -91 20 -110 25 -19 5 -47 12 -62 15 -16 3 -40 7 -55
10 -16 3 -46 11 -68 17 -22 5 -49 12 -60 14 -11 2 -29 6 -40 9 -11 2 -63 14
-115 25 -52 12 -104 23 -115 26 -11 3 -29 7 -40 9 -29 7 -48 11 -175 40 -63
15 -122 28 -130 30 -125 28 -169 37 -190 41 -14 3 -34 8 -45 11 -11 3 -30 7
-42 9 -12 1 -37 7 -55 13 -18 5 -46 12 -63 15 -48 8 -86 16 -145 31 -30 8 -75
17 -100 20 -24 4 -48 9 -52 11 -6 4 -53 14 -138 30 -14 3 -32 7 -40 9 -8 2
-31 7 -50 10 -19 3 -44 9 -55 12 -11 3 -29 7 -40 9 -11 2 -31 5 -45 9 -14 3
-38 8 -55 10 -16 3 -37 8 -45 10 -8 2 -26 6 -40 9 -14 2 -104 20 -200 40 -96
19 -191 38 -210 41 -19 3 -42 8 -50 10 -8 2 -31 6 -50 9 -19 3 -46 8 -60 11
-14 3 -41 8 -60 11 -19 4 -44 8 -55 11 -11 2 -35 6 -54 9 -18 3 -43 8 -55 10
-11 2 -34 6 -51 9 -16 3 -41 7 -55 10 -14 3 -38 7 -55 9 -16 3 -70 12 -120 20
-49 9 -108 18 -130 21 -22 4 -47 8 -55 10 -8 2 -37 7 -65 10 -27 3 -75 10
-105 15 -30 5 -73 12 -95 15 -22 2 -49 6 -60 9 -17 3 -78 11 -165 21 -82 10
-138 16 -160 20 -24 3 -138 14 -210 20 -19 2 -73 6 -120 10 -220 19 -458 28
-778 29 -166 1 -304 1 -305 0z m773 -1939 c102 -3 210 -8 240 -10 79 -5 217
-15 275 -20 28 -3 77 -7 110 -10 33 -3 80 -7 105 -10 25 -3 68 -7 95 -10 28
-3 61 -7 75 -10 14 -2 48 -6 75 -10 90 -10 199 -25 230 -31 10 -2 37 -6 60 -9
22 -3 65 -10 95 -15 30 -5 71 -12 90 -15 19 -3 47 -8 63 -10 15 -3 42 -7 60
-10 17 -3 43 -8 57 -10 49 -10 75 -15 110 -20 20 -3 47 -8 60 -10 14 -3 36 -7
50 -10 14 -2 39 -7 55 -9 28 -5 43 -8 105 -21 14 -2 36 -7 50 -9 14 -3 50 -10
80 -16 30 -6 67 -13 82 -15 15 -2 35 -6 45 -9 10 -3 32 -8 48 -11 34 -6 69
-12 105 -20 36 -8 63 -13 105 -19 20 -4 40 -8 44 -10 3 -2 22 -7 41 -10 46 -8
78 -14 98 -20 9 -3 31 -8 47 -11 45 -8 77 -14 103 -20 12 -3 32 -7 45 -10 12
-3 33 -7 47 -10 14 -3 35 -7 48 -10 12 -3 32 -7 45 -10 12 -3 33 -7 47 -10 14
-3 35 -7 48 -10 56 -13 68 -15 87 -19 11 -2 40 -9 65 -15 25 -5 56 -12 70 -15
14 -2 87 -19 164 -36 142 -32 161 -37 208 -45 15 -3 38 -9 52 -15 15 -5 26 -8
26 -5 0 2 15 -1 33 -6 17 -5 43 -11 57 -14 26 -5 56 -12 88 -19 9 -3 51 -12
92 -21 41 -9 83 -18 93 -21 9 -2 25 -6 35 -8 9 -2 47 -11 83 -20 37 -8 78 -17
90 -20 13 -2 47 -10 74 -16 28 -7 59 -14 70 -16 27 -4 63 -12 83 -18 9 -3 28
-7 42 -10 25 -5 48 -10 102 -22 15 -3 29 -5 30 -4 2 1 15 -3 29 -8 14 -6 41
-13 60 -16 19 -3 66 -13 104 -22 39 -9 77 -18 85 -19 46 -6 210 -48 210 -54 0
-4 13 -15 29 -24 l30 -17 -50 -88 c-27 -48 -53 -94 -59 -102 -5 -8 -46 -80
-92 -159 -46 -79 -93 -160 -104 -180 -29 -48 -91 -156 -122 -211 -14 -25 -36
-62 -49 -82 -13 -21 -21 -38 -17 -38 3 0 -3 -12 -14 -27 -18 -26 -252 -496
-252 -507 0 -4 -13 -33 -82 -185 -37 -82 -264 -653 -272 -686 -3 -10 -9 -27
-29 -80 -7 -16 -12 -32 -12 -35 0 -3 -6 -15 -13 -27 -7 -13 -10 -23 -7 -23 3
0 -1 -13 -9 -29 -8 -15 -17 -39 -20 -52 -2 -13 -13 -45 -25 -71 -11 -27 -18
-48 -15 -48 3 0 2 -6 -3 -12 -4 -7 -8 -15 -9 -18 0 -3 -6 -18 -12 -33 -7 -15
-15 -40 -18 -55 -4 -15 -11 -32 -15 -38 -5 -6 -10 -19 -12 -30 -2 -10 -7 -26
-10 -34 -3 -8 -15 -44 -27 -80 -12 -36 -25 -74 -30 -85 -8 -18 -19 -52 -26
-80 -2 -5 -22 -62 -44 -125 -23 -63 -43 -119 -44 -125 -2 -5 -6 -17 -9 -25 -3
-8 -19 -53 -35 -100 -17 -47 -40 -112 -52 -145 -11 -33 -23 -67 -25 -75 -2 -8
-36 -100 -75 -205 -39 -104 -82 -221 -96 -260 -15 -38 -32 -83 -39 -100 -7
-16 -34 -84 -60 -150 -26 -66 -51 -129 -56 -140 -4 -11 -51 -130 -104 -265
-53 -135 -100 -254 -105 -265 -23 -50 -92 -222 -95 -236 -2 -9 -8 -25 -14 -35
-6 -11 -29 -64 -52 -119 -84 -205 -130 -311 -146 -340 -10 -16 -16 -31 -16
-32 3 -4 -45 -113 -61 -143 -8 -14 -15 -28 -15 -32 -5 -33 -335 -698 -444
-893 -307 -552 -588 -934 -962 -1310 -352 -353 -756 -643 -1197 -858 -75 -37
-139 -67 -142 -67 -3 0 -30 -11 -60 -25 -30 -14 -57 -25 -60 -25 -4 0 -25 -8
-49 -18 -64 -29 -143 -58 -237 -87 -47 -15 -92 -29 -100 -32 -8 -3 -19 -7 -25
-8 -5 -2 -50 -14 -100 -28 -100 -27 -143 -39 -165 -43 -19 -3 -57 -11 -134
-29 -33 -7 -79 -16 -101 -20 -23 -3 -52 -8 -65 -10 -49 -10 -176 -28 -277 -40
-194 -23 -342 -30 -643 -30 -252 0 -364 4 -535 20 -110 11 -153 15 -174 19
-12 3 -44 8 -69 11 -25 3 -86 12 -136 21 -125 21 -128 21 -156 28 -14 3 -36 8
-50 10 -14 3 -36 7 -50 11 -14 3 -34 7 -45 10 -18 4 -55 12 -80 19 -5 1 -19 5
-30 9 -11 3 -31 8 -45 11 -14 3 -65 17 -115 31 -49 14 -94 27 -100 28 -5 2
-14 5 -20 8 -5 4 -23 9 -40 13 -53 12 -336 118 -432 162 -53 25 -104 46 -113
49 -17 4 -310 156 -398 207 -173 99 -454 281 -460 299 -2 5 -8 9 -14 9 -9 0
-170 119 -208 153 -8 7 -37 31 -65 53 -27 21 -52 41 -55 44 -3 3 -36 32 -75
65 -114 97 -182 165 -211 209 -15 22 -41 61 -57 85 l-30 44 83 76 c79 71 358
327 568 520 52 47 104 95 115 107 12 11 56 52 97 89 122 111 202 185 250 230
87 81 446 402 570 509 69 59 141 122 160 140 20 17 103 87 185 155 83 69 152
127 155 131 6 6 408 327 510 406 107 83 269 205 370 279 52 38 100 73 105 77
10 9 162 118 254 182 28 20 75 53 104 73 28 20 72 50 97 67 25 16 47 32 50 36
10 11 513 341 680 446 180 113 592 362 635 384 17 8 32 17 35 20 3 4 68 41
145 84 77 43 151 86 165 94 14 9 26 14 26 11 1 -2 10 3 20 11 21 16 33 24 126
74 35 18 92 49 128 68 173 93 220 119 430 226 379 193 419 218 544 341 86 85
123 134 174 232 70 136 87 208 87 384 0 150 -5 182 -46 308 -101 306 -342 554
-632 649 -85 28 -128 33 -267 33 -176 -1 -229 -21 -635 -235 -97 -51 -216
-113 -415 -218 -69 -36 -129 -68 -135 -72 -5 -4 -68 -38 -140 -75 -71 -37
-134 -71 -140 -75 -5 -4 -39 -23 -75 -42 -55 -30 -197 -109 -375 -208 -35 -19
-517 -297 -555 -320 -190 -114 -443 -267 -470 -284 -19 -12 -53 -34 -75 -48
-22 -13 -58 -36 -80 -50 -22 -14 -85 -54 -140 -89 -55 -35 -101 -67 -103 -71
-2 -5 -8 -8 -13 -8 -8 0 -302 -195 -449 -299 -216 -151 -566 -405 -625 -453
-5 -5 -86 -67 -180 -140 -154 -119 -454 -358 -481 -383 -6 -5 -33 -28 -59 -50
-176 -146 -519 -443 -635 -549 -136 -124 -352 -324 -483 -449 -40 -37 -173
-168 -297 -290 -124 -122 -261 -251 -305 -287 -44 -35 -88 -72 -98 -82 -26
-26 -31 -23 -46 30 -55 198 -68 245 -77 292 -3 14 -9 39 -14 55 -9 33 -36 157
-55 255 -3 14 -7 35 -9 46 -2 12 -7 37 -10 55 -3 19 -7 43 -10 54 -2 11 -7 40
-10 65 -3 25 -8 54 -10 65 -3 18 -7 45 -21 150 -28 213 -39 409 -39 690 0 224
6 381 18 485 3 19 7 62 11 95 4 33 8 69 10 80 2 11 6 43 10 70 10 72 12 87 18
120 4 17 9 44 11 60 3 17 8 41 11 55 3 14 8 39 11 55 2 17 9 46 14 65 5 19 11
47 14 61 12 69 101 381 136 474 10 28 31 84 45 125 75 206 246 575 352 760 77
134 142 243 185 307 26 40 48 76 48 82 0 5 4 11 8 13 5 2 28 32 52 68 177 262
523 649 770 859 47 40 101 86 120 103 125 108 479 355 650 453 47 27 87 52 90
55 14 15 422 220 555 279 66 29 137 62 158 72 20 10 37 17 37 15 0 -3 41 13
90 34 50 21 90 36 90 34 0 -3 12 2 28 10 77 42 809 282 952 311 12 2 79 21
110 30 3 1 19 5 35 9 160 39 234 57 253 61 12 3 32 7 45 10 21 5 46 10 97 20
14 3 36 7 50 10 14 3 36 7 50 10 14 3 36 7 50 10 14 3 41 7 60 10 19 3 46 7
60 10 14 3 39 7 55 9 17 3 44 7 60 10 17 3 50 8 75 11 25 3 56 8 70 10 14 2
50 7 80 10 30 4 69 9 85 11 32 4 129 14 185 19 263 23 268 23 515 31 116 3
211 7 212 8 4 3 226 -1 443 -9z m-20855 -30 c83 -3 170 -8 195 -10 110 -7 238
-17 270 -20 19 -2 64 -7 100 -10 36 -3 79 -8 95 -10 17 -2 53 -6 80 -10 28 -3
61 -7 75 -9 14 -2 50 -7 80 -10 30 -4 62 -8 70 -11 8 -2 35 -6 60 -9 25 -4 56
-8 70 -10 110 -20 150 -26 185 -32 22 -3 43 -8 46 -10 4 -2 24 -6 45 -10 33
-5 67 -11 195 -39 9 -2 33 -8 53 -13 20 -6 36 -8 36 -6 0 3 8 0 18 -5 9 -5 35
-12 57 -15 22 -4 58 -12 80 -18 45 -13 51 -15 80 -22 11 -3 54 -15 95 -26 41
-12 82 -23 90 -25 69 -16 444 -139 530 -172 8 -4 17 -7 20 -8 3 -1 19 -7 35
-14 49 -20 170 -65 175 -66 3 -1 23 -9 45 -19 22 -9 76 -32 120 -51 393 -163
842 -406 1115 -602 426 -307 729 -588 1057 -983 122 -146 295 -396 420 -605
86 -144 234 -430 282 -545 13 -30 29 -68 37 -85 64 -141 211 -575 239 -705 1
-8 8 -35 15 -60 7 -25 14 -56 16 -70 2 -14 7 -36 11 -50 10 -42 11 -44 17 -75
3 -16 8 -41 11 -55 7 -35 12 -63 30 -167 2 -16 6 -41 9 -58 3 -16 8 -52 11
-80 3 -27 8 -61 10 -75 2 -14 7 -54 11 -90 27 -268 34 -550 20 -810 -11 -224
-13 -247 -41 -460 -3 -25 -8 -61 -10 -80 -2 -19 -7 -46 -10 -60 -2 -13 -7 -40
-10 -60 -3 -20 -8 -47 -10 -60 -3 -14 -8 -41 -11 -60 -3 -19 -7 -43 -10 -52
-3 -10 -7 -30 -10 -45 -3 -16 -16 -75 -30 -133 -14 -58 -27 -113 -29 -123 -2
-10 -7 -27 -10 -37 -3 -10 -7 -27 -9 -37 -2 -10 -12 -47 -21 -83 -9 -36 -19
-72 -20 -80 -2 -8 -10 -34 -17 -58 l-13 -42 -95 67 c-65 46 -173 144 -345 314
-251 250 -363 358 -471 458 -33 30 -91 84 -129 120 -135 127 -481 432 -685
605 -147 125 -237 198 -420 345 -118 95 -223 179 -232 186 -38 31 -356 273
-388 295 -19 14 -42 30 -50 37 -13 11 -191 142 -259 191 -13 9 -30 23 -37 30
-7 6 -15 12 -18 12 -3 0 -52 33 -108 74 -199 142 -688 470 -970 650 -153 98
-564 348 -693 421 -66 38 -121 73 -123 77 -2 4 -12 8 -23 8 -10 0 -19 3 -19 8
0 4 -10 12 -23 18 -12 6 -66 36 -121 67 -54 32 -102 57 -107 57 -5 0 -9 5 -9
10 0 6 -5 10 -10 10 -6 0 -79 38 -163 84 -195 107 -275 149 -477 253 -91 47
-199 104 -240 126 -101 55 -348 179 -385 194 -32 13 -149 52 -177 59 -48 11
-67 15 -113 20 -121 15 -242 4 -353 -32 -55 -17 -64 -21 -157 -64 -200 -91
-367 -256 -444 -439 -29 -69 -60 -166 -66 -205 -2 -17 -7 -51 -11 -76 -9 -57
-10 -230 -1 -291 28 -182 130 -357 285 -484 102 -85 280 -199 457 -295 44 -24
109 -59 145 -78 80 -43 472 -261 520 -289 19 -11 69 -40 110 -63 227 -130 729
-436 983 -601 76 -49 140 -89 143 -89 2 0 12 -6 21 -14 10 -8 124 -85 253
-171 301 -202 809 -561 965 -682 17 -13 35 -27 40 -31 73 -53 251 -188 255
-192 3 -3 43 -35 90 -70 46 -36 94 -72 105 -82 11 -9 92 -74 180 -144 599
-478 1219 -1028 1803 -1599 285 -277 328 -325 367 -408 44 -94 17 -175 -98
-291 -128 -129 -438 -375 -604 -481 -35 -22 -63 -43 -63 -47 0 -5 -5 -8 -10
-8 -6 0 -37 -17 -68 -37 -223 -143 -573 -321 -842 -428 -52 -20 -104 -41 -115
-45 -44 -19 -255 -91 -280 -96 -5 -1 -29 -9 -52 -18 -24 -8 -43 -13 -43 -10 0
3 -6 2 -12 -3 -7 -4 -17 -8 -23 -9 -5 -1 -37 -10 -70 -19 -50 -14 -174 -44
-248 -60 -10 -2 -26 -6 -35 -9 -20 -6 -52 -12 -192 -36 -30 -5 -70 -12 -87
-15 -18 -3 -48 -8 -65 -11 -33 -5 -42 -6 -153 -19 -33 -3 -76 -8 -95 -11 -221
-27 -783 -26 -1025 1 -22 2 -62 7 -90 10 -27 3 -63 7 -80 10 -16 2 -46 7 -65
10 -19 2 -46 7 -60 10 -14 3 -41 7 -60 10 -46 6 -85 14 -140 27 -25 6 -54 12
-65 14 -19 3 -32 6 -85 19 -11 3 -29 7 -40 10 -11 3 -28 7 -39 9 -10 2 -51 14
-92 26 -41 12 -78 23 -84 25 -5 1 -17 4 -25 7 -8 3 -46 15 -85 28 -397 129
-776 315 -1175 579 -63 41 -117 78 -120 81 -3 3 -39 30 -80 60 -41 30 -77 57
-80 60 -3 3 -52 44 -110 91 -167 137 -295 258 -465 439 -355 380 -677 873
-903 1386 -22 49 -52 116 -67 149 -50 109 -144 326 -194 445 -18 41 -39 91
-48 110 -9 19 -18 40 -19 45 -2 6 -57 143 -124 305 -147 357 -140 341 -152
364 -5 10 -11 26 -13 35 -2 9 -31 86 -65 171 -34 85 -125 319 -202 520 -77
201 -150 393 -164 427 -13 34 -24 64 -24 68 0 4 -6 21 -14 38 -8 18 -35 88
-61 157 -25 69 -50 134 -55 145 -10 23 -243 644 -302 805 -21 58 -42 113 -48
122 -5 10 -10 25 -10 33 0 8 -5 23 -10 33 -6 9 -40 96 -76 192 -37 96 -71 186
-77 200 -6 14 -11 27 -12 30 -4 12 -18 47 -25 65 -8 18 -81 202 -130 325 -10
25 -22 56 -28 70 -5 14 -11 30 -12 35 -1 6 -8 21 -16 35 -7 14 -57 124 -110
244 -210 479 -453 929 -710 1317 -46 69 -84 128 -84 131 0 3 17 9 38 13 52 11
40 8 237 60 99 25 191 49 204 51 14 3 28 7 32 9 4 3 24 7 45 11 22 3 47 10 57
15 9 5 17 8 17 5 0 -3 15 0 33 5 30 10 44 13 92 24 11 2 74 18 140 35 66 17
128 33 138 35 10 2 27 7 37 10 10 3 27 7 37 9 10 2 38 9 63 16 25 7 52 14 60
16 19 4 169 43 193 49 9 3 25 7 35 9 9 2 53 14 97 26 44 12 90 24 102 26 12 2
34 9 48 14 14 5 25 8 25 5 0 -2 18 2 40 10 22 8 40 12 40 10 0 -3 11 0 25 5
14 5 36 12 48 14 12 2 51 12 87 21 36 9 74 19 85 21 74 16 136 30 180 41 17 4
32 7 35 8 3 1 19 4 35 8 17 4 39 9 50 11 11 3 43 10 70 16 28 6 61 14 75 16
14 2 36 7 50 10 14 3 34 8 45 10 11 2 29 6 40 9 49 10 75 16 145 30 41 8 89
17 105 20 17 2 41 7 55 10 14 3 40 8 59 11 18 3 43 8 55 10 11 3 32 7 46 9 14
2 36 7 50 9 13 3 42 8 65 11 22 3 47 8 55 10 8 2 35 7 60 10 25 3 52 8 60 10
8 2 35 7 60 10 25 2 56 7 70 10 14 3 45 8 70 11 25 3 59 7 75 11 17 3 41 6 55
8 14 1 44 5 68 9 23 3 61 9 85 12 23 3 53 7 67 9 14 2 54 6 90 10 36 4 76 8
90 10 14 3 50 7 80 10 30 3 75 7 100 10 70 7 139 14 210 20 36 3 88 8 115 10
157 13 284 20 550 30 110 4 201 8 202 9 5 5 616 -2 748 -9z m15150 -20219
c1056 -9 1330 -15 1570 -31 216 -15 228 -16 355 -30 25 -2 70 -7 100 -10 30
-3 66 -8 80 -10 14 -2 45 -6 70 -10 64 -9 101 -15 135 -21 17 -3 41 -7 55 -9
26 -3 66 -11 110 -20 14 -3 36 -7 50 -10 53 -10 72 -14 88 -19 9 -3 28 -8 42
-10 76 -16 127 -28 140 -33 8 -3 20 -7 26 -8 7 -2 73 -24 147 -49 156 -53 311
-117 447 -186 88 -44 111 -56 203 -109 128 -73 312 -201 465 -325 165 -134
392 -364 532 -542 201 -254 402 -589 512 -854 5 -14 16 -38 24 -55 28 -63 47
-114 93 -255 43 -127 57 -174 66 -215 2 -5 8 -30 15 -55 7 -25 14 -53 16 -62
2 -10 6 -28 9 -40 3 -13 7 -32 10 -43 2 -11 6 -30 9 -41 2 -12 7 -37 10 -55 3
-19 7 -43 10 -54 2 -11 7 -40 10 -65 3 -25 8 -56 11 -70 3 -13 7 -49 10 -80 3
-30 7 -75 10 -100 3 -25 7 -88 10 -140 11 -220 17 -317 20 -350 2 -19 6 -64 9
-100 10 -109 27 -267 31 -291 2 -9 6 -40 10 -70 6 -52 10 -76 20 -136 2 -16 7
-44 10 -63 3 -19 7 -46 10 -60 3 -14 7 -38 10 -55 3 -16 7 -41 10 -55 3 -14 8
-38 11 -55 2 -16 16 -79 30 -140 14 -60 27 -121 30 -135 11 -57 77 -300 101
-370 8 -25 16 -52 18 -60 3 -14 50 -156 62 -190 3 -8 7 -19 9 -25 10 -35 65
-178 79 -204 8 -17 13 -31 11 -31 -3 0 6 -25 19 -55 33 -73 54 -124 56 -133 0
-4 6 -16 12 -27 6 -11 12 -22 12 -25 7 -44 306 -610 327 -618 4 -2 8 -9 8 -16
0 -23 295 -460 392 -581 116 -144 138 -176 140 -206 l3 -34 -11557 0 c-6357 0
-11558 3 -11558 8 0 4 68 87 150 185 268 316 482 633 682 1007 94 175 264 545
251 545 -3 0 -1 6 4 13 10 11 92 223 97 250 2 7 5 19 8 27 57 156 145 472 172
618 3 12 7 30 10 40 3 9 7 33 10 52 3 19 8 46 11 60 6 27 12 61 20 110 3 17 7
42 10 58 2 15 7 47 10 72 3 25 7 54 9 66 5 26 16 111 21 166 25 258 24 239 40
768 3 96 7 193 10 215 7 73 16 150 20 175 2 14 7 43 9 65 3 22 8 51 11 65 5
26 12 59 20 100 5 28 13 60 20 90 3 11 7 28 9 38 13 59 72 251 102 332 19 52
35 100 35 105 0 6 6 19 12 30 7 11 26 52 42 90 77 188 249 492 392 690 86 121
201 267 232 295 9 8 29 31 45 50 65 81 284 293 386 376 19 16 37 31 40 34 3 3
37 30 75 60 186 147 383 276 583 382 40 21 80 43 90 48 69 39 400 180 437 186
6 1 35 11 65 22 59 21 156 52 180 57 8 2 62 15 120 30 100 25 237 53 290 60
14 1 45 6 70 9 147 22 154 22 330 31 175 9 386 13 1330 20 454 4 826 8 827 9
6 5 8242 -3 8938 -8z"/>
<path d="M20975 13460 c-22 -5 -53 -11 -70 -14 -97 -18 -265 -93 -348 -157
-140 -107 -249 -254 -311 -421 -14 -37 -28 -77 -30 -90 -3 -13 -8 -34 -11 -48
-16 -69 -20 -116 -20 -235 0 -145 9 -208 42 -295 3 -8 7 -21 9 -28 6 -31 78
-162 119 -217 91 -122 201 -216 335 -288 69 -37 201 -85 253 -93 18 -2 52 -7
77 -11 103 -16 238 -7 355 22 101 26 295 116 295 137 0 4 6 8 13 8 6 0 42 26
79 58 193 166 310 370 345 602 17 118 3 289 -34 400 -48 145 -144 299 -246
396 -74 71 -141 124 -156 124 -6 0 -11 4 -11 8 0 17 -188 102 -265 121 -28 6
-61 14 -75 18 -40 9 -301 12 -345 3z"/>
<path d="M22977 10574 c-1 -1 -24 -5 -51 -8 -49 -7 -164 -42 -226 -71 -208
-94 -403 -285 -499 -490 -39 -83 -42 -90 -44 -105 -2 -8 -5 -19 -8 -25 -27
-46 -41 -252 -26 -365 55 -392 398 -749 791 -825 144 -28 347 -10 486 42 240
91 452 294 549 528 52 125 71 230 67 375 -2 69 -7 135 -10 148 -7 26 -14 55
-20 80 -2 9 -15 46 -29 82 -49 130 -116 230 -231 346 -159 158 -325 246 -532
280 -37 6 -212 13 -217 8z"/>
<path d="M26720 10563 c-135 -28 -218 -63 -336 -143 -175 -119 -334 -345 -380
-542 -12 -53 -15 -67 -21 -113 -9 -67 -9 -250 0 -302 10 -56 42 -151 74 -221
85 -188 280 -384 458 -461 28 -12 57 -25 65 -30 19 -10 115 -38 166 -48 47 -9
277 -10 319 -1 63 13 91 20 120 30 202 69 357 180 487 350 32 43 56 78 52 78
-4 0 -1 8 7 18 32 38 90 183 104 257 47 262 2 488 -140 711 -60 94 -214 242
-304 292 -71 41 -92 51 -153 75 -37 14 -77 28 -90 31 -13 2 -30 7 -38 10 -64
23 -300 29 -390 9z"/>
<path d="M3198 24035 c-2 -2 -39 -6 -82 -10 -43 -4 -88 -8 -100 -11 -11 -2
-38 -6 -60 -10 -22 -3 -43 -7 -46 -9 -3 -2 -23 -6 -45 -9 -71 -11 -272 -69
-345 -99 -14 -5 -29 -11 -35 -12 -22 -6 -174 -76 -250 -116 -78 -41 -271 -165
-329 -211 -227 -180 -389 -355 -538 -578 -72 -109 -194 -330 -181 -330 3 0 0
-6 -6 -13 -23 -28 -118 -290 -135 -372 -3 -11 -11 -49 -20 -85 -28 -120 -36
-172 -53 -335 -13 -132 -6 -466 12 -555 3 -14 7 -38 9 -55 3 -16 9 -50 15 -75
5 -25 12 -56 14 -70 21 -118 113 -364 197 -530 183 -363 488 -699 843 -928 88
-57 265 -152 363 -194 94 -40 278 -102 352 -119 121 -27 153 -33 226 -44 21
-4 48 -8 59 -11 35 -6 237 -18 312 -18 77 1 245 11 285 18 14 3 43 7 65 10 60
9 183 36 245 54 30 9 57 17 60 17 104 24 334 124 495 215 52 29 209 131 215
139 3 4 21 18 40 31 134 92 345 298 476 465 72 92 185 268 246 385 31 58 56
108 57 112 1 5 12 32 25 61 24 55 45 114 47 132 0 6 4 15 9 20 18 23 85 287
96 380 3 22 7 45 9 52 2 7 7 54 11 105 17 210 5 455 -32 643 -2 11 -6 32 -9
48 -14 76 -69 263 -99 338 -14 36 -26 69 -26 72 0 12 -100 216 -137 281 -124
215 -257 384 -437 559 -113 108 -329 277 -355 277 -5 0 -11 4 -13 8 -6 18
-203 125 -343 188 -91 41 -292 108 -354 119 -19 3 -37 8 -41 10 -4 2 -20 7
-36 10 -27 5 -47 9 -103 20 -13 2 -49 7 -80 11 -31 3 -65 8 -76 11 -21 5 -412
12 -417 8z m327 -1939 c127 -37 226 -119 284 -234 17 -34 29 -62 26 -62 -2 0
0 -12 6 -27 20 -51 19 -190 -3 -267 -77 -279 -355 -416 -642 -316 -101 35
-160 76 -219 153 -64 84 -89 159 -92 277 -7 295 197 502 489 495 51 -1 117 -9
151 -19z"/>
<path d="M38669 24036 c-2 -2 -39 -7 -81 -11 -43 -3 -88 -8 -100 -10 -13 -2
-43 -6 -68 -9 -45 -6 -82 -12 -130 -22 -14 -3 -34 -7 -45 -9 -11 -2 -31 -6
-45 -9 -14 -4 -38 -9 -54 -12 -16 -2 -32 -7 -36 -9 -3 -2 -17 -6 -31 -8 -13
-3 -44 -11 -69 -18 -25 -7 -49 -13 -55 -15 -5 -1 -59 -18 -120 -39 -337 -113
-643 -272 -923 -479 -151 -112 -219 -171 -361 -309 -344 -339 -586 -703 -761
-1141 -44 -112 -98 -269 -116 -341 -10 -41 -9 -38 -17 -60 -3 -11 -8 -31 -11
-45 -3 -14 -8 -36 -11 -50 -3 -14 -8 -38 -11 -54 -2 -16 -6 -32 -8 -35 -2 -3
-7 -26 -10 -51 -3 -25 -8 -56 -11 -70 -5 -23 -9 -55 -20 -140 -25 -198 -25
-584 -1 -785 13 -103 17 -132 20 -151 3 -12 7 -38 10 -58 3 -19 10 -55 15 -78
6 -24 13 -59 16 -78 15 -89 103 -385 135 -455 4 -11 21 -51 35 -90 35 -90 136
-297 197 -404 50 -85 185 -292 197 -301 4 -3 10 -12 14 -20 11 -29 199 -246
306 -355 263 -266 556 -478 881 -638 153 -75 162 -79 275 -122 39 -15 84 -32
100 -38 17 -7 32 -12 35 -13 3 0 12 -4 20 -7 22 -9 124 -37 130 -36 3 1 22 -6
43 -14 20 -9 37 -14 37 -11 0 3 8 0 18 -5 9 -5 35 -12 57 -15 22 -4 56 -11 75
-16 36 -9 83 -18 135 -26 17 -2 41 -6 55 -9 14 -3 48 -8 75 -11 28 -3 64 -7
80 -9 222 -28 604 -23 835 11 25 3 59 8 75 10 17 2 41 6 55 9 14 3 39 7 55 10
17 3 42 8 57 11 15 3 30 5 33 5 2 0 23 6 45 14 22 8 41 14 43 13 5 -3 113 25
128 33 9 4 31 11 50 14 18 3 39 11 46 17 7 6 13 8 13 5 0 -3 30 5 68 19 37 14
78 29 92 34 76 26 358 155 370 169 3 3 38 23 78 44 40 21 119 68 175 105 56
37 106 69 111 71 5 2 16 9 25 16 9 8 74 59 145 115 180 143 326 283 479 463
77 89 214 273 237 318 7 13 16 26 20 29 15 11 134 221 189 335 51 104 150 342
157 375 0 3 3 12 7 20 16 39 89 318 101 385 3 17 8 39 10 50 3 18 9 57 22 145
5 35 15 136 20 195 5 72 5 380 0 450 -14 175 -17 202 -20 221 -2 12 -7 45 -11
74 -4 29 -9 62 -11 74 -2 12 -7 37 -10 56 -3 19 -7 43 -10 52 -5 16 -8 30 -19
88 -3 14 -14 59 -25 100 -12 41 -22 82 -25 90 -33 131 -133 388 -212 550 -330
673 -866 1219 -1513 1543 -188 94 -410 187 -448 187 -7 0 -20 4 -30 10 -22 12
-167 54 -262 75 -97 22 -109 24 -145 30 -16 3 -42 8 -57 11 -15 3 -42 7 -60 9
-68 9 -134 18 -163 22 -36 6 -581 14 -586 9z m391 -1920 c30 -3 66 -8 80 -11
14 -3 41 -8 60 -12 19 -4 37 -8 40 -8 3 -1 32 -9 65 -20 33 -10 63 -19 67 -19
3 -1 10 -4 14 -8 4 -5 14 -8 22 -8 8 0 60 -23 116 -51 55 -29 111 -57 123 -63
13 -6 23 -14 23 -18 0 -5 6 -8 14 -8 8 0 16 -3 18 -7 2 -5 28 -26 58 -49 126
-94 263 -240 349 -374 39 -61 131 -235 136 -259 2 -9 13 -41 24 -71 10 -30 22
-68 27 -85 4 -16 8 -34 10 -40 3 -10 8 -33 19 -92 24 -122 24 -401 0 -513 -3
-14 -7 -36 -10 -50 -78 -409 -335 -760 -691 -944 -102 -53 -205 -94 -279 -112
-188 -46 -211 -48 -415 -49 -150 0 -230 5 -300 20 -14 3 -34 7 -45 9 -21 4
-99 24 -125 31 -279 77 -583 305 -742 555 -72 112 -165 320 -168 372 -1 4 -7
25 -15 47 -12 36 -18 64 -31 146 -3 17 -7 44 -10 60 -14 71 -12 371 2 450 8
44 17 96 20 115 3 19 11 44 17 55 6 11 9 20 8 20 -13 0 65 198 113 285 53 97
151 227 235 311 217 215 549 368 861 395 36 3 66 7 67 8 5 4 186 -2 243 -8z"/>
<path d="M30849 2916 c-2 -2 -46 -6 -96 -10 -107 -7 -161 -14 -243 -30 -35 -8
-108 -31 -117 -39 -7 -5 -13 -7 -13 -3 0 3 -33 -10 -72 -30 -327 -164 -509
-461 -502 -819 1 -108 6 -141 30 -237 3 -13 6 -27 7 -33 2 -5 6 -16 10 -22 5
-7 6 -13 3 -13 -12 0 65 -165 110 -238 88 -141 242 -276 394 -344 48 -22 93
-40 110 -43 3 -1 30 -9 61 -18 30 -9 73 -19 95 -23 21 -3 42 -8 45 -10 27 -16
556 -19 3424 -19 2949 0 3333 2 3415 20 14 3 38 8 53 10 139 20 338 100 463
185 172 117 323 330 359 506 5 21 10 46 12 54 23 99 23 295 -1 409 -35 165
-124 329 -248 459 -128 134 -268 209 -483 259 -58 13 -507 17 -1953 18 -875 0
-1592 3 -1592 8 0 7 -3263 10 -3271 3z"/>
<path d="M6077 1974 c-1 -1 -72 -4 -157 -5 -135 -3 -190 -9 -310 -34 -59 -12
-171 -51 -240 -83 -230 -107 -395 -286 -473 -513 -25 -73 -29 -90 -44 -165
-10 -49 -10 -317 0 -364 4 -19 9 -48 12 -64 3 -16 10 -37 16 -48 5 -10 7 -18
5 -18 -6 0 23 -72 52 -130 54 -111 159 -236 267 -318 85 -65 262 -154 330
-166 6 -1 16 -5 23 -9 6 -5 12 -6 12 -3 0 2 15 0 33 -5 17 -5 46 -12 62 -14
17 -3 41 -7 55 -10 14 -3 61 -9 105 -13 105 -9 13248 -9 13345 0 384 39 641
155 811 368 37 46 100 146 104 165 1 5 11 30 22 55 26 60 61 191 70 265 9 77
9 268 0 320 -14 82 -19 100 -48 176 -69 178 -188 301 -400 412 -99 52 -246
112 -269 109 -3 0 -13 4 -23 10 -10 5 -28 12 -40 14 -12 3 -26 6 -32 8 -60 17
-140 32 -225 41 -94 10 -2683 16 -7778 19 -2905 1 -5283 1 -5285 0z"/>
<path d="M22969 1946 c-2 -2 -24 -6 -49 -9 -233 -31 -491 -189 -635 -392 -53
-74 -105 -174 -120 -227 -2 -5 -4 -10 -5 -13 -1 -3 -3 -8 -5 -12 -1 -5 -4 -15
-8 -23 -6 -17 -16 -61 -22 -105 -3 -16 -7 -41 -10 -54 -16 -67 -3 -244 29
-366 19 -79 110 -276 134 -295 4 -3 20 -23 35 -46 48 -72 179 -193 272 -252
52 -32 175 -88 215 -97 3 -1 23 -7 45 -13 22 -6 69 -14 105 -18 581 -65 1077
387 1073 976 0 36 -4 85 -7 110 -4 25 -8 54 -10 65 -12 80 -102 295 -144 342
-10 10 -24 29 -33 43 -29 45 -113 131 -174 180 -172 137 -363 205 -578 208
-58 1 -106 0 -108 -2z"/>
</g>
</svg>
